<svg width="48" height="56" viewBox="0 0 48 56" fill="none" xmlns="http://www.w3.org/2000/svg">
<path d="M32 39.0013H16C14.9 39.0013 14 38.1013 14 37.0013C14 35.9013 14.9 35.0013 16 35.0013H32C33.1 35.0013 34 35.9013 34 37.0013C34 38.1013 33.1 39.0013 32 39.0013ZM25.06 20.1913L28.81 23.9413L20.04 32.7113C19.86 32.9013 19.6 33.0013 19.34 33.0013H17C16.45 33.0013 16 32.5513 16 32.0013V29.6613C16 29.3913 16.11 29.1413 16.29 28.9513L25.06 20.1913ZM29.88 22.8713L26.13 19.1213L27.96 17.2913C28.35 16.9013 28.98 16.9013 29.37 17.2913L31.71 19.6313C32.1 20.0213 32.1 20.6513 31.71 21.0413L29.88 22.8713Z" fill="#00B4FF"/>
</svg>
