<svg width="18" height="18" viewBox="0 0 18 18" fill="none" xmlns="http://www.w3.org/2000/svg">
<path d="M12.9767 11.4716H12.1867L11.9067 11.2016C13.1067 9.80157 13.7267 7.89157 13.3867 5.86157C12.9167 3.08157 10.5967 0.861573 7.7967 0.521573C3.5667 0.00157288 0.00669983 3.56157 0.5267 7.79157C0.8667 10.5916 3.0867 12.9116 5.8667 13.3816C7.8967 13.7216 9.8067 13.1016 11.2067 11.9016L11.4767 12.1816V12.9716L15.7267 17.2216C16.1367 17.6316 16.8067 17.6316 17.2167 17.2216C17.6267 16.8116 17.6267 16.1416 17.2167 15.7316L12.9767 11.4716ZM6.9767 11.4716C4.4867 11.4716 2.4767 9.46157 2.4767 6.97157C2.4767 4.48157 4.4867 2.47157 6.9767 2.47157C9.4667 2.47157 11.4767 4.48157 11.4767 6.97157C11.4767 9.46157 9.4667 11.4716 6.9767 11.4716Z" fill="#052A49"/>
</svg>
